<?xml version="1.0" encoding="utf-8"?>
<!-- Generator: Adobe Illustrator 13.0.0, SVG Export Plug-In . SVG Version: 6.00 Build 14948)  -->
<!DOCTYPE svg PUBLIC "-//W3C//DTD SVG 1.1//EN" "http://www.w3.org/Graphics/SVG/1.1/DTD/svg11.dtd">
<svg version="1.1" id="Layer_1" xmlns="http://www.w3.org/2000/svg" xmlns:xlink="http://www.w3.org/1999/xlink" x="0px" y="0px"
	 width="400px" height="400px" viewBox="0 0 400 400" style="enable-background:new 0 0 400 400;" xml:space="preserve">
<style type="text/css">
<![CDATA[
	.st0{fill:#FFF200;}
]]>
</style>
<g id="solid" xmlns:rdf="http://www.w3.org/1999/02/22-rdf-syntax-ns#" xmlns:dc="http://purl.org/dc/elements/1.1/" xmlns:cc="http://creativecommons.org/ns#" xmlns:inkscape="http://www.inkscape.org/namespaces/inkscape" xmlns:svg="http://www.w3.org/2000/svg" xmlns:sodipodi="http://sodipodi.sourceforge.net/DTD/sodipodi-0.dtd" inkscape:version="0.48.1 r9760" sodipodi:docname="twitter_bootstrap_logo.svg">
	<path id="bg" class="st0" d="M400,333.334C400,370,370,400,333.333,400H66.667C30,400,0,370,0,333.334V66.667C0,30,30,0,66.667,0
		h266.667C370,0,400,30,400,66.667V333.334z"/>
	<g>
		<path d="M316.599,198.42c0,27.299-8.116,52.383-22.503,73.41c-18.444,28.036-47.219,48.326-80.788,56.072
			c-8.484,1.845-17.338,2.951-26.191,2.951c-1.107,0.369-91.855,0-91.855,0c0-32.463,27.298-59.023,59.023-59.023h32.094
			c39.472-1.106,71.197-33.569,71.197-73.41c0,0,0,0,0-0.369c0-40.578-33.2-73.41-73.779-73.41c-10.698,0-20.658,2.213-29.512,5.902
			v67.508c0,32.832-26.561,59.023-59.023,59.023V99.187c16.601-14.756,36.521-25.454,59.023-30.249
			c9.591-2.214,19.183-3.32,29.512-3.32c46.112,0,86.69,23.24,110.3,58.654c14.019,21.396,22.503,46.481,22.503,73.779
			C316.599,198.42,316.599,198.42,316.599,198.42z"/>
	</g>
</g>
</svg>
